<svg xmlns="http://www.w3.org/2000/svg" viewBox="0 0 186.8 186.8"><path d="M93.4 0C41.9 0 0 41.9 0 93.4s41.9 93.4 93.4 93.4 93.4-41.9 93.4-93.4S144.9 0 93.4 0zm60.9 44.1c10.5 12.9 16.9 29.2 17.5 47-19.4-4-37-3.6-52.6-.5-2.8-6.6-5.7-12.8-8.7-18.8 17-7.3 31.7-16.6 43.8-27.7zm-10.5-10.7c-12 11-25.9 19.1-40.2 25.1-10.4-19.2-20.4-33.6-26.5-41.8 5.3-1.1 10.7-1.7 16.3-1.7 19.2 0 36.7 6.9 50.4 18.4zM61.9 21.6c4.6 6 15.6 20.9 27.3 42.1C59.7 73.4 31 75 17.2 75.2c5.7-24 22.5-43.8 44.7-53.6zM15.1 90.2h.4c9.5 0 27-.6 47.6-4.4 11.7-2.1 22.9-5 33.3-8.6 2.7 5.4 5.4 11.1 8 17.1-14.6 4.7-26.9 11.5-36.7 18.2-16.4 11.3-27.8 23.8-34.1 31.5C22 130.4 15 112.7 15 93.4c0-1.1 0-2.1.1-3.2zm29.3 64.4c5.4-6.8 16.4-19.1 32.2-30 10.8-7.4 21.9-12.8 33.4-16.4 6.7 17.3 12.4 36.4 15.8 56.6-9.9 4.5-20.9 7-32.4 7-18.5 0-35.5-6.4-49-17.2zm95.2 2.1c-3.5-18.6-8.7-36.1-14.7-52.1 14.8-2.5 30.2-2 45.9 1.6-3.4 20.6-14.9 38.6-31.2 50.5z"/></svg>